<svg viewBox="0 0 512 512" xmlns="http://www.w3.org/2000/svg" style="fill-rule:evenodd;clip-rule:evenodd;stroke-linecap:round;stroke-linejoin:round;">
    <style>
        @media (prefers-color-scheme: dark) {
            path,
            rect {
                stroke: white !important;
            }
        }
    </style>
    <g transform="matrix(1.22523,0,0,1.22523,-57.6594,-57.6594)">
        <g transform="matrix(10.3567,0,0,10.3567,131.719,131.719)">
            <path d="M14,5C12.903,5 12,5.903 12,7L12,17C12,18.097 11.097,19 10,19" style="fill:none;fill-rule:nonzero;stroke:black;stroke-width:1.31px;"/>
        </g>
        <g transform="matrix(10.3567,0,0,10.3567,131.719,131.719)">
            <rect x="3" y="17" width="4" height="4" style="fill:none;fill-rule:nonzero;stroke:black;stroke-width:1.31px;"/>
        </g>
        <g transform="matrix(10.3567,0,0,10.3567,131.719,131.719)">
            <rect x="17" y="3" width="4" height="4" style="fill:none;fill-rule:nonzero;stroke:black;stroke-width:1.31px;"/>
        </g>
    </g>
    <g transform="matrix(1.14091,0,0,1.14091,-36.0731,-36.0731)">
        <g transform="matrix(20.889,0,0,20.889,5.33144,5.33144)">
            <path d="M6,19C4.903,19 4,18.097 4,17L4,13L3,12L4,11L4,7C4,5.903 4.903,5 6,5" style="fill:none;fill-rule:nonzero;stroke:black;stroke-width:1.4px;"/>
        </g>
        <g transform="matrix(20.889,0,0,20.889,5.33144,5.33144)">
            <path d="M18,19C19.097,19 20,18.097 20,17L20,13L21,12L20,11L20,7C20,5.903 19.097,5 18,5" style="fill:none;fill-rule:nonzero;stroke:black;stroke-width:1.4px;"/>
        </g>
    </g>
</svg>
