<?xml version="1.0" standalone="no"?>
<!DOCTYPE svg PUBLIC "-//W3C//DTD SVG 20010904//EN"
 "http://www.w3.org/TR/2001/REC-SVG-20010904/DTD/svg10.dtd">
<svg version="1.0" xmlns="http://www.w3.org/2000/svg"
 width="512.000000pt" height="512.000000pt" viewBox="0 0 512.000000 512.000000"
 preserveAspectRatio="xMidYMid meet">
<metadata>
Created by potrace 1.14, written by Peter Selinger 2001-2017
</metadata>
<g transform="translate(0.000000,512.000000) scale(0.100000,-0.100000)"
fill="#000000" stroke="none">
<path d="M2378 5105 c-2 -1 -34 -6 -73 -9 -99 -9 -177 -20 -215 -31 -8 -2 -31
-6 -50 -9 -141 -21 -399 -111 -595 -206 -263 -128 -475 -279 -680 -485 -126
-126 -160 -164 -237 -266 -241 -320 -408 -699 -474 -1074 -14 -81 -18 -105
-33 -230 -9 -72 -7 -460 2 -505 3 -14 8 -47 11 -75 3 -27 8 -61 11 -75 3 -14
8 -41 11 -60 3 -19 10 -53 16 -75 5 -22 11 -47 13 -55 12 -61 79 -271 112
-350 81 -196 245 -473 381 -645 68 -87 285 -303 372 -370 41 -33 77 -62 80
-65 3 -4 64 -45 135 -92 183 -121 511 -275 655 -309 19 -4 60 -15 90 -24 30
-8 64 -17 75 -19 11 -2 31 -7 45 -10 14 -3 39 -8 55 -11 49 -8 147 -24 190
-30 22 -4 130 -8 240 -10 245 -4 373 9 635 65 326 69 734 271 1023 506 103 84
284 265 362 364 33 41 63 77 66 80 3 3 43 61 88 130 91 138 211 373 265 521
34 94 99 329 110 399 3 19 7 44 10 55 2 11 7 45 11 75 4 30 9 64 12 75 12 53
11 447 -2 550 -14 111 -22 167 -30 195 -2 8 -6 31 -9 52 -9 62 -65 256 -103
357 -99 267 -264 552 -439 759 -63 74 -254 264 -324 323 -243 200 -559 375
-850 467 -71 22 -244 66 -300 76 -19 3 -46 8 -60 11 -28 6 -79 12 -190 24 -68
7 -405 12 -412 6z"/>
</g>
</svg>
